<mxfile host="app.diagrams.net" agent="Mozilla/5.0 (Windows NT 10.0; Win64; x64) AppleWebKit/537.36 (KHTML, like Gecko) Chrome/134.0.0.0 Safari/537.36" version="26.1.0">
  <diagram id="C5RBs43oDa-KdzZeNtuy" name="Page-1">
    <mxGraphModel dx="3217" dy="1380" grid="1" gridSize="10" guides="1" tooltips="1" connect="1" arrows="1" fold="1" page="1" pageScale="1" pageWidth="827" pageHeight="1169" math="0" shadow="0">
      <root>
        <mxCell id="WIyWlLk6GJQsqaUBKTNV-0" />
        <mxCell id="WIyWlLk6GJQsqaUBKTNV-1" parent="WIyWlLk6GJQsqaUBKTNV-0" />
        <mxCell id="Craojf3qMKD2F4bPsMmF-4" value="DimStatusPembayaran" style="swimlane;fontStyle=0;childLayout=stackLayout;horizontal=1;startSize=30;horizontalStack=0;resizeParent=1;resizeParentMax=0;resizeLast=0;collapsible=1;marginBottom=0;whiteSpace=wrap;html=1;" vertex="1" parent="WIyWlLk6GJQsqaUBKTNV-1">
          <mxGeometry x="309" y="50" width="210" height="90" as="geometry" />
        </mxCell>
        <mxCell id="Craojf3qMKD2F4bPsMmF-5" value="&lt;strong data-end=&quot;4256&quot; data-start=&quot;4234&quot;&gt;PK StatusPembayaranID&lt;/strong&gt;" style="text;strokeColor=none;fillColor=none;align=left;verticalAlign=middle;spacingLeft=4;spacingRight=4;overflow=hidden;points=[[0,0.5],[1,0.5]];portConstraint=eastwest;rotatable=0;whiteSpace=wrap;html=1;" vertex="1" parent="Craojf3qMKD2F4bPsMmF-4">
          <mxGeometry y="30" width="210" height="30" as="geometry" />
        </mxCell>
        <mxCell id="Craojf3qMKD2F4bPsMmF-6" value="NamaStatus" style="text;strokeColor=none;fillColor=none;align=left;verticalAlign=middle;spacingLeft=4;spacingRight=4;overflow=hidden;points=[[0,0.5],[1,0.5]];portConstraint=eastwest;rotatable=0;whiteSpace=wrap;html=1;" vertex="1" parent="Craojf3qMKD2F4bPsMmF-4">
          <mxGeometry y="60" width="210" height="30" as="geometry" />
        </mxCell>
        <mxCell id="Craojf3qMKD2F4bPsMmF-8" value="DimTipePembayaran" style="swimlane;fontStyle=0;childLayout=stackLayout;horizontal=1;startSize=30;horizontalStack=0;resizeParent=1;resizeParentMax=0;resizeLast=0;collapsible=1;marginBottom=0;whiteSpace=wrap;html=1;" vertex="1" parent="WIyWlLk6GJQsqaUBKTNV-1">
          <mxGeometry x="309" y="210" width="210" height="90" as="geometry" />
        </mxCell>
        <mxCell id="Craojf3qMKD2F4bPsMmF-9" value="&lt;strong data-end=&quot;4256&quot; data-start=&quot;4234&quot;&gt;PK TipePembayaranID&lt;/strong&gt;" style="text;strokeColor=none;fillColor=none;align=left;verticalAlign=middle;spacingLeft=4;spacingRight=4;overflow=hidden;points=[[0,0.5],[1,0.5]];portConstraint=eastwest;rotatable=0;whiteSpace=wrap;html=1;" vertex="1" parent="Craojf3qMKD2F4bPsMmF-8">
          <mxGeometry y="30" width="210" height="30" as="geometry" />
        </mxCell>
        <mxCell id="Craojf3qMKD2F4bPsMmF-10" value="NamaTipePembayaran" style="text;strokeColor=none;fillColor=none;align=left;verticalAlign=middle;spacingLeft=4;spacingRight=4;overflow=hidden;points=[[0,0.5],[1,0.5]];portConstraint=eastwest;rotatable=0;whiteSpace=wrap;html=1;" vertex="1" parent="Craojf3qMKD2F4bPsMmF-8">
          <mxGeometry y="60" width="210" height="30" as="geometry" />
        </mxCell>
        <mxCell id="Craojf3qMKD2F4bPsMmF-11" value="DimDate" style="swimlane;fontStyle=0;childLayout=stackLayout;horizontal=1;startSize=30;horizontalStack=0;resizeParent=1;resizeParentMax=0;resizeLast=0;collapsible=1;marginBottom=0;whiteSpace=wrap;html=1;" vertex="1" parent="WIyWlLk6GJQsqaUBKTNV-1">
          <mxGeometry x="309" y="390" width="210" height="150" as="geometry" />
        </mxCell>
        <mxCell id="Craojf3qMKD2F4bPsMmF-12" value="&lt;strong data-end=&quot;4256&quot; data-start=&quot;4234&quot;&gt;PK DateID&lt;/strong&gt;" style="text;strokeColor=none;fillColor=none;align=left;verticalAlign=middle;spacingLeft=4;spacingRight=4;overflow=hidden;points=[[0,0.5],[1,0.5]];portConstraint=eastwest;rotatable=0;whiteSpace=wrap;html=1;" vertex="1" parent="Craojf3qMKD2F4bPsMmF-11">
          <mxGeometry y="30" width="210" height="30" as="geometry" />
        </mxCell>
        <mxCell id="Craojf3qMKD2F4bPsMmF-13" value="Tanggal" style="text;strokeColor=none;fillColor=none;align=left;verticalAlign=middle;spacingLeft=4;spacingRight=4;overflow=hidden;points=[[0,0.5],[1,0.5]];portConstraint=eastwest;rotatable=0;whiteSpace=wrap;html=1;" vertex="1" parent="Craojf3qMKD2F4bPsMmF-11">
          <mxGeometry y="60" width="210" height="30" as="geometry" />
        </mxCell>
        <mxCell id="Craojf3qMKD2F4bPsMmF-14" value="Bulan" style="text;strokeColor=none;fillColor=none;align=left;verticalAlign=middle;spacingLeft=4;spacingRight=4;overflow=hidden;points=[[0,0.5],[1,0.5]];portConstraint=eastwest;rotatable=0;whiteSpace=wrap;html=1;" vertex="1" parent="Craojf3qMKD2F4bPsMmF-11">
          <mxGeometry y="90" width="210" height="30" as="geometry" />
        </mxCell>
        <mxCell id="Craojf3qMKD2F4bPsMmF-15" value="Tahun" style="text;strokeColor=none;fillColor=none;align=left;verticalAlign=middle;spacingLeft=4;spacingRight=4;overflow=hidden;points=[[0,0.5],[1,0.5]];portConstraint=eastwest;rotatable=0;whiteSpace=wrap;html=1;" vertex="1" parent="Craojf3qMKD2F4bPsMmF-11">
          <mxGeometry y="120" width="210" height="30" as="geometry" />
        </mxCell>
        <mxCell id="Craojf3qMKD2F4bPsMmF-16" value="DimKurir" style="swimlane;fontStyle=0;childLayout=stackLayout;horizontal=1;startSize=30;horizontalStack=0;resizeParent=1;resizeParentMax=0;resizeLast=0;collapsible=1;marginBottom=0;whiteSpace=wrap;html=1;" vertex="1" parent="WIyWlLk6GJQsqaUBKTNV-1">
          <mxGeometry x="-61" y="390" width="210" height="120" as="geometry" />
        </mxCell>
        <mxCell id="Craojf3qMKD2F4bPsMmF-17" value="&lt;strong data-end=&quot;4256&quot; data-start=&quot;4234&quot;&gt;PK KurirID&lt;/strong&gt;" style="text;strokeColor=none;fillColor=none;align=left;verticalAlign=middle;spacingLeft=4;spacingRight=4;overflow=hidden;points=[[0,0.5],[1,0.5]];portConstraint=eastwest;rotatable=0;whiteSpace=wrap;html=1;" vertex="1" parent="Craojf3qMKD2F4bPsMmF-16">
          <mxGeometry y="30" width="210" height="30" as="geometry" />
        </mxCell>
        <mxCell id="Craojf3qMKD2F4bPsMmF-18" value="Nama" style="text;strokeColor=none;fillColor=none;align=left;verticalAlign=middle;spacingLeft=4;spacingRight=4;overflow=hidden;points=[[0,0.5],[1,0.5]];portConstraint=eastwest;rotatable=0;whiteSpace=wrap;html=1;" vertex="1" parent="Craojf3qMKD2F4bPsMmF-16">
          <mxGeometry y="60" width="210" height="30" as="geometry" />
        </mxCell>
        <mxCell id="Craojf3qMKD2F4bPsMmF-19" value="TipeKendaraan" style="text;strokeColor=none;fillColor=none;align=left;verticalAlign=middle;spacingLeft=4;spacingRight=4;overflow=hidden;points=[[0,0.5],[1,0.5]];portConstraint=eastwest;rotatable=0;whiteSpace=wrap;html=1;" vertex="1" parent="Craojf3qMKD2F4bPsMmF-16">
          <mxGeometry y="90" width="210" height="30" as="geometry" />
        </mxCell>
        <mxCell id="Craojf3qMKD2F4bPsMmF-21" value="DimStatusPengiriman" style="swimlane;fontStyle=0;childLayout=stackLayout;horizontal=1;startSize=30;horizontalStack=0;resizeParent=1;resizeParentMax=0;resizeLast=0;collapsible=1;marginBottom=0;whiteSpace=wrap;html=1;" vertex="1" parent="WIyWlLk6GJQsqaUBKTNV-1">
          <mxGeometry x="680" y="390" width="210" height="90" as="geometry" />
        </mxCell>
        <mxCell id="Craojf3qMKD2F4bPsMmF-22" value="&lt;strong data-end=&quot;4256&quot; data-start=&quot;4234&quot;&gt;PK StatusPengirimanID&lt;/strong&gt;" style="text;strokeColor=none;fillColor=none;align=left;verticalAlign=middle;spacingLeft=4;spacingRight=4;overflow=hidden;points=[[0,0.5],[1,0.5]];portConstraint=eastwest;rotatable=0;whiteSpace=wrap;html=1;" vertex="1" parent="Craojf3qMKD2F4bPsMmF-21">
          <mxGeometry y="30" width="210" height="30" as="geometry" />
        </mxCell>
        <mxCell id="Craojf3qMKD2F4bPsMmF-23" value="NamaStatus" style="text;strokeColor=none;fillColor=none;align=left;verticalAlign=middle;spacingLeft=4;spacingRight=4;overflow=hidden;points=[[0,0.5],[1,0.5]];portConstraint=eastwest;rotatable=0;whiteSpace=wrap;html=1;" vertex="1" parent="Craojf3qMKD2F4bPsMmF-21">
          <mxGeometry y="60" width="210" height="30" as="geometry" />
        </mxCell>
        <mxCell id="Craojf3qMKD2F4bPsMmF-25" value="FactPengiriman" style="swimlane;fontStyle=0;childLayout=stackLayout;horizontal=1;startSize=30;horizontalStack=0;resizeParent=1;resizeParentMax=0;resizeLast=0;collapsible=1;marginBottom=0;whiteSpace=wrap;html=1;" vertex="1" parent="WIyWlLk6GJQsqaUBKTNV-1">
          <mxGeometry x="149" y="640" width="530" height="330" as="geometry" />
        </mxCell>
        <mxCell id="Craojf3qMKD2F4bPsMmF-26" value="&lt;strong data-end=&quot;4256&quot; data-start=&quot;4234&quot;&gt;PK FactPengirimanID&lt;/strong&gt;" style="text;strokeColor=none;fillColor=none;align=left;verticalAlign=middle;spacingLeft=4;spacingRight=4;overflow=hidden;points=[[0,0.5],[1,0.5]];portConstraint=eastwest;rotatable=0;whiteSpace=wrap;html=1;" vertex="1" parent="Craojf3qMKD2F4bPsMmF-25">
          <mxGeometry y="30" width="530" height="30" as="geometry" />
        </mxCell>
        <mxCell id="Craojf3qMKD2F4bPsMmF-27" value="FK1 TanggalPengirimanID&amp;nbsp; -&amp;gt; DimDate(DateID)&amp;nbsp;&amp;nbsp;" style="text;strokeColor=none;fillColor=none;align=left;verticalAlign=middle;spacingLeft=4;spacingRight=4;overflow=hidden;points=[[0,0.5],[1,0.5]];portConstraint=eastwest;rotatable=0;whiteSpace=wrap;html=1;" vertex="1" parent="Craojf3qMKD2F4bPsMmF-25">
          <mxGeometry y="60" width="530" height="30" as="geometry" />
        </mxCell>
        <mxCell id="Craojf3qMKD2F4bPsMmF-28" value="FK2 TanggalSampaiTujuanID -&gt; DimDate(DateID)" style="text;strokeColor=none;fillColor=none;align=left;verticalAlign=middle;spacingLeft=4;spacingRight=4;overflow=hidden;points=[[0,0.5],[1,0.5]];portConstraint=eastwest;rotatable=0;whiteSpace=wrap;html=1;" vertex="1" parent="Craojf3qMKD2F4bPsMmF-25">
          <mxGeometry y="90" width="530" height="30" as="geometry" />
        </mxCell>
        <mxCell id="Craojf3qMKD2F4bPsMmF-29" value="FK3 TanggalSampaiAktualID -&amp;gt; DimDate(DateID)&amp;nbsp; &amp;nbsp; &amp;nbsp; &amp;nbsp;&amp;nbsp;" style="text;strokeColor=none;fillColor=none;align=left;verticalAlign=middle;spacingLeft=4;spacingRight=4;overflow=hidden;points=[[0,0.5],[1,0.5]];portConstraint=eastwest;rotatable=0;whiteSpace=wrap;html=1;" vertex="1" parent="Craojf3qMKD2F4bPsMmF-25">
          <mxGeometry y="120" width="530" height="30" as="geometry" />
        </mxCell>
        <mxCell id="Craojf3qMKD2F4bPsMmF-30" value="FK4 LokasiAsalID&amp;nbsp; &amp;nbsp; &amp;nbsp; &amp;nbsp; &amp;nbsp; -&amp;gt; DimLokasi(LokasiID)" style="text;strokeColor=none;fillColor=none;align=left;verticalAlign=middle;spacingLeft=4;spacingRight=4;overflow=hidden;points=[[0,0.5],[1,0.5]];portConstraint=eastwest;rotatable=0;whiteSpace=wrap;html=1;" vertex="1" parent="Craojf3qMKD2F4bPsMmF-25">
          <mxGeometry y="150" width="530" height="30" as="geometry" />
        </mxCell>
        <mxCell id="Craojf3qMKD2F4bPsMmF-31" value="FK5 LokasiTujuanID&amp;nbsp; &amp;nbsp; &amp;nbsp; &amp;nbsp; -&amp;gt; DimLokasi(LokasiID)&amp;nbsp;" style="text;strokeColor=none;fillColor=none;align=left;verticalAlign=middle;spacingLeft=4;spacingRight=4;overflow=hidden;points=[[0,0.5],[1,0.5]];portConstraint=eastwest;rotatable=0;whiteSpace=wrap;html=1;" vertex="1" parent="Craojf3qMKD2F4bPsMmF-25">
          <mxGeometry y="180" width="530" height="30" as="geometry" />
        </mxCell>
        <mxCell id="Craojf3qMKD2F4bPsMmF-32" value="FK6 KurirID&amp;nbsp; &amp;nbsp; &amp;nbsp; &amp;nbsp; &amp;nbsp; &amp;nbsp; &amp;nbsp; &amp;nbsp;-&amp;gt; DimKurir(KurirID)" style="text;strokeColor=none;fillColor=none;align=left;verticalAlign=middle;spacingLeft=4;spacingRight=4;overflow=hidden;points=[[0,0.5],[1,0.5]];portConstraint=eastwest;rotatable=0;whiteSpace=wrap;html=1;" vertex="1" parent="Craojf3qMKD2F4bPsMmF-25">
          <mxGeometry y="210" width="530" height="30" as="geometry" />
        </mxCell>
        <mxCell id="Craojf3qMKD2F4bPsMmF-33" value="FK7 StatusPengirimanID&amp;nbsp; &amp;nbsp; -&amp;gt; DimStatusPengiriman(StatusPengirimanID)" style="text;strokeColor=none;fillColor=none;align=left;verticalAlign=middle;spacingLeft=4;spacingRight=4;overflow=hidden;points=[[0,0.5],[1,0.5]];portConstraint=eastwest;rotatable=0;whiteSpace=wrap;html=1;" vertex="1" parent="Craojf3qMKD2F4bPsMmF-25">
          <mxGeometry y="240" width="530" height="30" as="geometry" />
        </mxCell>
        <mxCell id="Craojf3qMKD2F4bPsMmF-34" value="FK8 StatusPembayaranID&amp;nbsp; &amp;nbsp; -&amp;gt; DimStatusPembayaran(StatusPembayaranID)" style="text;strokeColor=none;fillColor=none;align=left;verticalAlign=middle;spacingLeft=4;spacingRight=4;overflow=hidden;points=[[0,0.5],[1,0.5]];portConstraint=eastwest;rotatable=0;whiteSpace=wrap;html=1;" vertex="1" parent="Craojf3qMKD2F4bPsMmF-25">
          <mxGeometry y="270" width="530" height="30" as="geometry" />
        </mxCell>
        <mxCell id="Craojf3qMKD2F4bPsMmF-35" value="FK9 TipePembayaranID&amp;nbsp; &amp;nbsp; &amp;nbsp; -&amp;gt; DimTipePembayaran(TipePembayaranID)&amp;nbsp;" style="text;strokeColor=none;fillColor=none;align=left;verticalAlign=middle;spacingLeft=4;spacingRight=4;overflow=hidden;points=[[0,0.5],[1,0.5]];portConstraint=eastwest;rotatable=0;whiteSpace=wrap;html=1;" vertex="1" parent="Craojf3qMKD2F4bPsMmF-25">
          <mxGeometry y="300" width="530" height="30" as="geometry" />
        </mxCell>
        <mxCell id="Craojf3qMKD2F4bPsMmF-36" value="DimLokasi" style="swimlane;fontStyle=0;childLayout=stackLayout;horizontal=1;startSize=30;horizontalStack=0;resizeParent=1;resizeParentMax=0;resizeLast=0;collapsible=1;marginBottom=0;whiteSpace=wrap;html=1;" vertex="1" parent="WIyWlLk6GJQsqaUBKTNV-1">
          <mxGeometry x="309" y="1050" width="210" height="150" as="geometry" />
        </mxCell>
        <mxCell id="Craojf3qMKD2F4bPsMmF-37" value="&lt;strong data-end=&quot;4256&quot; data-start=&quot;4234&quot;&gt;PK LokasiID&lt;/strong&gt;" style="text;strokeColor=none;fillColor=none;align=left;verticalAlign=middle;spacingLeft=4;spacingRight=4;overflow=hidden;points=[[0,0.5],[1,0.5]];portConstraint=eastwest;rotatable=0;whiteSpace=wrap;html=1;" vertex="1" parent="Craojf3qMKD2F4bPsMmF-36">
          <mxGeometry y="30" width="210" height="30" as="geometry" />
        </mxCell>
        <mxCell id="Craojf3qMKD2F4bPsMmF-38" value="Kecamatan" style="text;strokeColor=none;fillColor=none;align=left;verticalAlign=middle;spacingLeft=4;spacingRight=4;overflow=hidden;points=[[0,0.5],[1,0.5]];portConstraint=eastwest;rotatable=0;whiteSpace=wrap;html=1;" vertex="1" parent="Craojf3qMKD2F4bPsMmF-36">
          <mxGeometry y="60" width="210" height="30" as="geometry" />
        </mxCell>
        <mxCell id="Craojf3qMKD2F4bPsMmF-39" value="Kota&lt;span style=&quot;white-space: pre;&quot;&gt;&#x9;&lt;/span&gt;" style="text;strokeColor=none;fillColor=none;align=left;verticalAlign=middle;spacingLeft=4;spacingRight=4;overflow=hidden;points=[[0,0.5],[1,0.5]];portConstraint=eastwest;rotatable=0;whiteSpace=wrap;html=1;" vertex="1" parent="Craojf3qMKD2F4bPsMmF-36">
          <mxGeometry y="90" width="210" height="30" as="geometry" />
        </mxCell>
        <mxCell id="Craojf3qMKD2F4bPsMmF-40" value="Provinsi" style="text;strokeColor=none;fillColor=none;align=left;verticalAlign=middle;spacingLeft=4;spacingRight=4;overflow=hidden;points=[[0,0.5],[1,0.5]];portConstraint=eastwest;rotatable=0;whiteSpace=wrap;html=1;" vertex="1" parent="Craojf3qMKD2F4bPsMmF-36">
          <mxGeometry y="120" width="210" height="30" as="geometry" />
        </mxCell>
        <mxCell id="Craojf3qMKD2F4bPsMmF-43" value="" style="endArrow=classic;html=1;rounded=0;fontSize=12;startSize=8;endSize=8;entryX=1;entryY=0.5;entryDx=0;entryDy=0;edgeStyle=orthogonalEdgeStyle;exitX=1;exitY=0.5;exitDx=0;exitDy=0;" edge="1" parent="WIyWlLk6GJQsqaUBKTNV-1" source="Craojf3qMKD2F4bPsMmF-27" target="Craojf3qMKD2F4bPsMmF-12">
          <mxGeometry width="50" height="50" relative="1" as="geometry">
            <mxPoint x="810" y="610" as="sourcePoint" />
            <mxPoint x="710" y="620" as="targetPoint" />
            <Array as="points">
              <mxPoint x="700" y="715" />
              <mxPoint x="700" y="590" />
              <mxPoint x="600" y="590" />
              <mxPoint x="600" y="435" />
            </Array>
          </mxGeometry>
        </mxCell>
        <mxCell id="Craojf3qMKD2F4bPsMmF-44" value="" style="ellipse;whiteSpace=wrap;html=1;" vertex="1" parent="WIyWlLk6GJQsqaUBKTNV-1">
          <mxGeometry x="680" y="710" width="10" height="10" as="geometry" />
        </mxCell>
        <mxCell id="Craojf3qMKD2F4bPsMmF-46" value="" style="ellipse;whiteSpace=wrap;html=1;" vertex="1" parent="WIyWlLk6GJQsqaUBKTNV-1">
          <mxGeometry x="690" y="710" width="10" height="10" as="geometry" />
        </mxCell>
        <mxCell id="Craojf3qMKD2F4bPsMmF-49" value="" style="endArrow=classic;html=1;rounded=0;fontSize=12;startSize=8;endSize=8;edgeStyle=orthogonalEdgeStyle;exitX=0;exitY=0.5;exitDx=0;exitDy=0;entryX=1;entryY=0.5;entryDx=0;entryDy=0;" edge="1" parent="WIyWlLk6GJQsqaUBKTNV-1" source="Craojf3qMKD2F4bPsMmF-32" target="Craojf3qMKD2F4bPsMmF-17">
          <mxGeometry width="50" height="50" relative="1" as="geometry">
            <mxPoint x="60" y="830.05" as="sourcePoint" />
            <mxPoint x="220" y="550" as="targetPoint" />
            <Array as="points">
              <mxPoint x="101" y="865" />
              <mxPoint x="101" y="550" />
              <mxPoint x="200" y="550" />
              <mxPoint x="200" y="435" />
            </Array>
          </mxGeometry>
        </mxCell>
        <mxCell id="Craojf3qMKD2F4bPsMmF-50" value="" style="ellipse;whiteSpace=wrap;html=1;" vertex="1" parent="WIyWlLk6GJQsqaUBKTNV-1">
          <mxGeometry x="139" y="860" width="10" height="10" as="geometry" />
        </mxCell>
        <mxCell id="Craojf3qMKD2F4bPsMmF-51" value="" style="ellipse;whiteSpace=wrap;html=1;" vertex="1" parent="WIyWlLk6GJQsqaUBKTNV-1">
          <mxGeometry x="129" y="860" width="10" height="10" as="geometry" />
        </mxCell>
        <mxCell id="Craojf3qMKD2F4bPsMmF-52" value="" style="endArrow=classic;html=1;rounded=0;fontSize=12;startSize=8;endSize=8;edgeStyle=orthogonalEdgeStyle;exitX=1;exitY=0.5;exitDx=0;exitDy=0;" edge="1" parent="WIyWlLk6GJQsqaUBKTNV-1" source="Craojf3qMKD2F4bPsMmF-35" target="Craojf3qMKD2F4bPsMmF-9">
          <mxGeometry width="50" height="50" relative="1" as="geometry">
            <mxPoint x="689" y="540" as="sourcePoint" />
            <mxPoint x="529" y="260" as="targetPoint" />
            <Array as="points">
              <mxPoint x="720" y="955" />
              <mxPoint x="720" y="560" />
              <mxPoint x="640" y="560" />
              <mxPoint x="640" y="260" />
            </Array>
          </mxGeometry>
        </mxCell>
        <mxCell id="Craojf3qMKD2F4bPsMmF-53" value="" style="ellipse;whiteSpace=wrap;html=1;" vertex="1" parent="WIyWlLk6GJQsqaUBKTNV-1">
          <mxGeometry x="690" y="950" width="10" height="10" as="geometry" />
        </mxCell>
        <mxCell id="Craojf3qMKD2F4bPsMmF-54" value="" style="ellipse;whiteSpace=wrap;html=1;" vertex="1" parent="WIyWlLk6GJQsqaUBKTNV-1">
          <mxGeometry x="680" y="950" width="10" height="10" as="geometry" />
        </mxCell>
        <mxCell id="Craojf3qMKD2F4bPsMmF-55" value="" style="endArrow=classic;html=1;rounded=0;fontSize=12;startSize=8;endSize=8;entryX=1;entryY=0.5;entryDx=0;entryDy=0;edgeStyle=orthogonalEdgeStyle;exitX=1;exitY=0.5;exitDx=0;exitDy=0;" edge="1" parent="WIyWlLk6GJQsqaUBKTNV-1" source="Craojf3qMKD2F4bPsMmF-33" target="Craojf3qMKD2F4bPsMmF-22">
          <mxGeometry width="50" height="50" relative="1" as="geometry">
            <mxPoint x="1080" y="1040" as="sourcePoint" />
            <mxPoint x="920" y="340" as="targetPoint" />
            <Array as="points">
              <mxPoint x="750" y="895" />
              <mxPoint x="750" y="560" />
              <mxPoint x="920" y="560" />
              <mxPoint x="920" y="435" />
            </Array>
          </mxGeometry>
        </mxCell>
        <mxCell id="Craojf3qMKD2F4bPsMmF-56" value="" style="ellipse;whiteSpace=wrap;html=1;" vertex="1" parent="WIyWlLk6GJQsqaUBKTNV-1">
          <mxGeometry x="690" y="890" width="10" height="10" as="geometry" />
        </mxCell>
        <mxCell id="Craojf3qMKD2F4bPsMmF-57" value="" style="ellipse;whiteSpace=wrap;html=1;" vertex="1" parent="WIyWlLk6GJQsqaUBKTNV-1">
          <mxGeometry x="680" y="890" width="10" height="10" as="geometry" />
        </mxCell>
        <mxCell id="Craojf3qMKD2F4bPsMmF-58" value="" style="endArrow=classic;html=1;rounded=0;fontSize=12;startSize=8;endSize=8;edgeStyle=orthogonalEdgeStyle;exitX=0;exitY=0.5;exitDx=0;exitDy=0;entryX=0;entryY=0.5;entryDx=0;entryDy=0;" edge="1" parent="WIyWlLk6GJQsqaUBKTNV-1" source="Craojf3qMKD2F4bPsMmF-30" target="Craojf3qMKD2F4bPsMmF-37">
          <mxGeometry width="50" height="50" relative="1" as="geometry">
            <mxPoint x="159" y="875" as="sourcePoint" />
            <mxPoint x="240" y="1140" as="targetPoint" />
            <Array as="points">
              <mxPoint x="80" y="805" />
              <mxPoint x="80" y="1095" />
            </Array>
          </mxGeometry>
        </mxCell>
        <mxCell id="Craojf3qMKD2F4bPsMmF-59" value="" style="ellipse;whiteSpace=wrap;html=1;" vertex="1" parent="WIyWlLk6GJQsqaUBKTNV-1">
          <mxGeometry x="129" y="800" width="10" height="10" as="geometry" />
        </mxCell>
        <mxCell id="Craojf3qMKD2F4bPsMmF-60" value="" style="ellipse;whiteSpace=wrap;html=1;" vertex="1" parent="WIyWlLk6GJQsqaUBKTNV-1">
          <mxGeometry x="139" y="800" width="10" height="10" as="geometry" />
        </mxCell>
        <mxCell id="Craojf3qMKD2F4bPsMmF-63" value="" style="endArrow=classic;html=1;rounded=0;fontSize=12;startSize=8;endSize=8;edgeStyle=orthogonalEdgeStyle;exitX=0;exitY=0.5;exitDx=0;exitDy=0;entryX=0;entryY=0.5;entryDx=0;entryDy=0;" edge="1" parent="WIyWlLk6GJQsqaUBKTNV-1" source="Craojf3qMKD2F4bPsMmF-34" target="Craojf3qMKD2F4bPsMmF-5">
          <mxGeometry width="50" height="50" relative="1" as="geometry">
            <mxPoint x="-70" y="890" as="sourcePoint" />
            <mxPoint x="260" y="610" as="targetPoint" />
            <Array as="points">
              <mxPoint x="60" y="925" />
              <mxPoint x="60" y="610" />
              <mxPoint x="240" y="610" />
              <mxPoint x="240" y="95" />
            </Array>
          </mxGeometry>
        </mxCell>
        <mxCell id="Craojf3qMKD2F4bPsMmF-64" value="" style="ellipse;whiteSpace=wrap;html=1;" vertex="1" parent="WIyWlLk6GJQsqaUBKTNV-1">
          <mxGeometry x="129" y="920" width="10" height="10" as="geometry" />
        </mxCell>
        <mxCell id="Craojf3qMKD2F4bPsMmF-65" value="" style="ellipse;whiteSpace=wrap;html=1;" vertex="1" parent="WIyWlLk6GJQsqaUBKTNV-1">
          <mxGeometry x="139" y="920" width="10" height="10" as="geometry" />
        </mxCell>
      </root>
    </mxGraphModel>
  </diagram>
</mxfile>
